<?xml version="1.0" encoding="utf-8"?>
<!-- Generator: Adobe Illustrator 21.0.0, SVG Export Plug-In . SVG Version: 6.00 Build 0)  -->
<svg version="1.1" id="Layer_1" xmlns="http://www.w3.org/2000/svg" xmlns:xlink="http://www.w3.org/1999/xlink" x="0px" y="0px"
	 viewBox="0 0 200 90.5" style="enable-background:new 0 0 200 90.5;" xml:space="preserve">
<style type="text/css">
	.st0{clip-path:url(#SVGID_2_);fill:#FFFFFF;}
	.st1{clip-path:url(#SVGID_4_);fill:#FFFFFF;}
	.st2{fill:#FFFFFF;}
	.st3{clip-path:url(#SVGID_6_);fill:#FFFFFF;}
	.st4{clip-path:url(#SVGID_8_);fill:#FFFFFF;}
	.st5{clip-path:url(#SVGID_10_);fill:#FFFFFF;}
	.st6{clip-path:url(#SVGID_12_);fill:#FFFFFF;}
	.st7{clip-path:url(#SVGID_14_);fill:#FFFFFF;}
	.st8{clip-path:url(#SVGID_16_);fill:#FFFFFF;}
	.st9{clip-path:url(#SVGID_18_);fill:#FFFFFF;}
	.st10{clip-path:url(#SVGID_20_);fill:#FFFFFF;}
	.st11{clip-path:url(#SVGID_22_);fill:#FFFFFF;}
	.st12{clip-path:url(#SVGID_24_);fill:#FFFFFF;}
	.st13{clip-path:url(#SVGID_26_);fill:#FFFFFF;}
	.st14{clip-path:url(#SVGID_28_);fill:#FFFFFF;}
	.st15{clip-path:url(#SVGID_30_);fill:#FFFFFF;}
	.st16{clip-path:url(#SVGID_32_);fill:#FFFFFF;}
	.st17{font-family:'MyriadPro-Regular';}
	.st18{font-size:4.0187px;}
</style>
<g>
	<g>
		<g>
			<defs>
				<rect id="SVGID_1_" x="-9.2" y="-50.5" width="217.3" height="181.1"/>
			</defs>
			<clipPath id="SVGID_2_">
				<use xlink:href="#SVGID_1_"  style="overflow:visible;"/>
			</clipPath>
			<path class="st0" d="M43.1,70L43.1,70c0.5-0.9,1.3-1.4,2.4-1.4c2,0,2.6,1.3,2.6,3.3v4.7h-0.8v-4.7c0-1.4-0.2-2.6-1.9-2.6
				c-2,0-2.3,1.8-2.3,3.4v3.9h-0.8v-7.8h0.8V70z"/>
		</g>
		<g>
			<defs>
				<rect id="SVGID_3_" x="-9.2" y="-50.5" width="217.3" height="181.1"/>
			</defs>
			<clipPath id="SVGID_4_">
				<use xlink:href="#SVGID_3_"  style="overflow:visible;"/>
			</clipPath>
			<path class="st1" d="M64.6,68.8v4.7c0,0.8,0,1.6-0.5,2.3c-0.5,0.7-1.5,1.1-2.3,1.1c-0.9,0-1.8-0.3-2.3-1.1
				C59,75.1,59,74.3,59,73.5v-4.7h0.8v4.4c0,1.5,0.2,2.9,2.1,2.9c1.9,0,2.1-1.4,2.1-2.9v-4.4H64.6z"/>
		</g>
	</g>
	<polygon class="st2" points="75.6,66 75.6,68.8 74.8,68.8 74.8,69.5 75.6,69.5 75.6,76.6 76.4,76.6 76.4,69.5 77.8,69.5 77.8,68.8 
		76.4,68.8 76.4,66 	"/>
	<g>
		<g>
			<defs>
				<rect id="SVGID_5_" x="-9.2" y="-50.5" width="217.3" height="181.1"/>
			</defs>
			<clipPath id="SVGID_6_">
				<use xlink:href="#SVGID_5_"  style="overflow:visible;"/>
			</clipPath>
			<path class="st3" d="M88.3,69.8L88.3,69.8c0.3-0.7,0.9-1.2,1.7-1.2c0.3,0,0.6,0.1,0.8,0.2l-0.4,0.7c-0.2-0.1-0.3-0.2-0.5-0.2
				c-1.7,0-1.6,2.1-1.6,3.3v4h-0.8v-7.8h0.8V69.8z"/>
		</g>
		<g>
			<defs>
				<rect id="SVGID_7_" x="-9.2" y="-50.5" width="217.3" height="181.1"/>
			</defs>
			<clipPath id="SVGID_8_">
				<use xlink:href="#SVGID_7_"  style="overflow:visible;"/>
			</clipPath>
			<path class="st4" d="M101.8,76.6H101v-7.8h0.8V76.6z M102.1,66.2c0,0.4-0.3,0.7-0.7,0.7c-0.4,0-0.7-0.3-0.7-0.7
				c0-0.4,0.3-0.7,0.7-0.7C101.8,65.5,102.1,65.8,102.1,66.2"/>
		</g>
	</g>
	<polygon class="st2" points="113.3,66 113.3,68.8 112.4,68.8 112.4,69.5 113.3,69.5 113.3,76.6 114.1,76.6 114.1,69.5 115.4,69.5 
		115.4,68.8 114.1,68.8 114.1,66 	"/>
	<g>
		<g>
			<defs>
				<rect id="SVGID_9_" x="-9.2" y="-50.5" width="217.3" height="181.1"/>
			</defs>
			<clipPath id="SVGID_10_">
				<use xlink:href="#SVGID_9_"  style="overflow:visible;"/>
			</clipPath>
			<path class="st5" d="M126.3,76.6h-0.8v-7.8h0.8V76.6z M126.6,66.2c0,0.4-0.3,0.7-0.7,0.7c-0.4,0-0.7-0.3-0.7-0.7
				c0-0.4,0.3-0.7,0.7-0.7C126.3,65.5,126.6,65.8,126.6,66.2"/>
		</g>
		<g>
			<defs>
				<rect id="SVGID_11_" x="-9.2" y="-50.5" width="217.3" height="181.1"/>
			</defs>
			<clipPath id="SVGID_12_">
				<use xlink:href="#SVGID_11_"  style="overflow:visible;"/>
			</clipPath>
			<path class="st6" d="M137.7,72.7c0,1.8,1.4,3.4,3.3,3.4c1.9,0,3.4-1.5,3.4-3.4s-1.5-3.4-3.4-3.4
				C139.1,69.4,137.7,70.9,137.7,72.7 M145.1,72.7c0,2.3-1.8,4.1-4.1,4.1s-4.1-1.8-4.1-4.1c0-2.3,1.8-4.1,4.1-4.1
				S145.1,70.4,145.1,72.7"/>
		</g>
		<g>
			<defs>
				<rect id="SVGID_13_" x="-9.2" y="-50.5" width="217.3" height="181.1"/>
			</defs>
			<clipPath id="SVGID_14_">
				<use xlink:href="#SVGID_13_"  style="overflow:visible;"/>
			</clipPath>
			<path class="st7" d="M156.2,70L156.2,70c0.5-0.9,1.3-1.4,2.4-1.4c2,0,2.6,1.3,2.6,3.3v4.7h-0.8v-4.7c0-1.4-0.2-2.6-1.9-2.6
				c-2,0-2.3,1.8-2.3,3.4v3.9h-0.8v-7.8h0.8V70z"/>
		</g>
		<g>
			<defs>
				<rect id="SVGID_15_" x="-9.2" y="-50.5" width="217.3" height="181.1"/>
			</defs>
			<clipPath id="SVGID_16_">
				<use xlink:href="#SVGID_15_"  style="overflow:visible;"/>
			</clipPath>
			<path class="st8" d="M36.9,47.3V42c0-6.8-2.4-10.2-7.3-10.2c-2.4,0-4.3,1-5.9,2.9s-2.4,4.2-2.5,6.9v5.6c0,2.8,0.8,5.2,2.4,7.2
				s3.6,3,6,3C34.4,57.5,36.9,54.1,36.9,47.3 M12.2,58.3v-1.1l3.7-0.5v-39l-3.7-0.5v-1.1h9v20.4c1.9-4,4.9-6,8.9-6
				c3.8,0,6.9,1.3,9.2,3.9c2.3,2.6,3.4,6,3.4,10.2s-1.1,7.6-3.4,10.3s-5.4,3.9-9.3,3.9s-6.9-2-8.8-6v5.5
				C21.2,58.3,12.2,58.3,12.2,58.3z"/>
		</g>
		<g>
			<defs>
				<rect id="SVGID_17_" x="-9.2" y="-50.5" width="217.3" height="181.1"/>
			</defs>
			<clipPath id="SVGID_18_">
				<use xlink:href="#SVGID_17_"  style="overflow:visible;"/>
			</clipPath>
			<path class="st9" d="M64.2,49.4V44h-2c-2.7,0-5,0.7-6.9,2c-1.8,1.3-2.8,3.3-2.8,6c0,1.4,0.4,2.5,1.2,3.3s1.9,1.2,3.5,1.2
				c1.5,0,3-0.6,4.5-1.9C63.2,53.2,64,51.5,64.2,49.4 M64.2,53.1c-0.9,1.8-2.2,3.2-4,4.2s-3.7,1.5-5.9,1.5s-4-0.6-5.4-1.8
				s-2.1-2.8-2.1-4.9c0-2.1,0.4-3.7,1.3-4.9c0.9-1.2,2-2.1,3.5-2.9c2.6-1.3,6.1-1.9,10.6-1.9h2v-5c0-3.9-1.8-5.9-5.4-5.9
				c-1.6,0-2.9,0.4-3.9,1.1s-1.5,1.6-1.5,2.6s0.5,1.6,1.5,1.9c0,0.9-0.3,1.7-1,2.3c-0.7,0.7-1.5,1-2.4,1s-1.7-0.3-2.3-1
				s-0.9-1.5-0.9-2.4c0-1,0.3-1.9,0.9-2.7c0.6-0.8,1.4-1.5,2.3-2.1c2-1.2,4.4-1.8,7.4-1.8c7.1,0,10.7,2.7,10.7,8.1v16.1
				c0,1.6,0.6,2.4,2,2.4c1.3,0,2-0.8,2-2.3h1.1c0,1.2-0.4,2.2-1.2,2.9c-0.8,0.7-2,1.1-3.5,1.1s-2.8-0.5-3.9-1.4
				C64.8,56.5,64.2,55,64.2,53.1"/>
		</g>
		<g>
			<defs>
				<rect id="SVGID_19_" x="-9.2" y="-50.5" width="217.3" height="181.1"/>
			</defs>
			<clipPath id="SVGID_20_">
				<use xlink:href="#SVGID_19_"  style="overflow:visible;"/>
			</clipPath>
			<path class="st10" d="M94.4,38.9c0.9-0.7,1.4-1.6,1.4-2.8s-0.5-2.3-1.6-3.1c-1-0.8-2.4-1.2-4.1-1.2c-2.5,0-4.5,0.9-5.8,2.7
				c-1.4,1.8-2,4.4-2,7.6v5.3c0,3.1,0.7,5.6,2,7.5s3.2,2.8,5.7,2.8s4.6-0.7,6.4-2c1.8-1.4,2.9-3.1,3.3-5.4h1.2
				c-0.5,2.6-1.7,4.7-3.7,6.2s-4.3,2.3-7.1,2.3c-3.9,0-7.1-1.3-9.7-3.9c-2.6-2.6-3.9-6.1-3.9-10.4s1.4-7.7,4.1-10.2s5.9-3.8,9.6-3.8
				c3.1,0,5.6,0.8,7.7,2.3s3.1,3.5,3.1,5.8c0,1.2-0.3,2-0.9,2.7c-0.6,0.6-1.4,0.9-2.3,0.9c-1,0-1.8-0.3-2.4-1
				C94.7,40.6,94.4,39.8,94.4,38.9"/>
		</g>
		<g>
			<defs>
				<rect id="SVGID_21_" x="-9.2" y="-50.5" width="217.3" height="181.1"/>
			</defs>
			<clipPath id="SVGID_22_">
				<use xlink:href="#SVGID_21_"  style="overflow:visible;"/>
			</clipPath>
			<path class="st11" d="M104,17.2v-1.1h9v20.6c2.8-4.1,6.3-6.2,10.3-6.2c2.5,0,4.5,0.6,6,1.9c1.5,1.3,2.2,3.1,2.2,5.6v18.7l3.7,0.5
				v1.1H123v-1.1l3.2-0.5V38.2c0-3.8-1.5-5.8-4.5-5.8c-1.6,0-3.2,0.6-4.7,1.8s-2.8,2.6-4,4.4v18.2l3.2,0.5v1.1H104v-1.1l3.7-0.5v-39
				L104,17.2z"/>
		</g>
		<g>
			<defs>
				<rect id="SVGID_23_" x="-9.2" y="-50.5" width="217.3" height="181.1"/>
			</defs>
			<clipPath id="SVGID_24_">
				<use xlink:href="#SVGID_23_"  style="overflow:visible;"/>
			</clipPath>
			<path class="st12" d="M155.4,49.4V44h-2c-2.7,0-5,0.7-6.9,2c-1.8,1.3-2.8,3.3-2.8,6c0,1.4,0.4,2.5,1.2,3.3s1.9,1.2,3.5,1.2
				c1.5,0,3-0.6,4.5-1.9C154.3,53.2,155.1,51.5,155.4,49.4 M155.4,53.1c-0.9,1.8-2.2,3.2-4,4.2s-3.7,1.5-5.9,1.5s-4-0.6-5.4-1.8
				s-2.1-2.8-2.1-4.9c0-2.1,0.4-3.7,1.3-4.9c0.9-1.2,2-2.1,3.5-2.9c2.6-1.3,6.1-1.9,10.6-1.9h2v-5c0-3.9-1.8-5.9-5.4-5.9
				c-1.6,0-2.9,0.4-3.9,1.1s-1.5,1.6-1.5,2.6s0.5,1.6,1.5,1.9c0,0.9-0.3,1.7-1,2.3c-0.7,0.7-1.5,1-2.4,1s-1.7-0.3-2.3-1
				s-0.9-1.5-0.9-2.4c0-1,0.3-1.9,0.9-2.7c0.6-0.8,1.4-1.5,2.3-2.1c2-1.2,4.4-1.8,7.4-1.8c7.1,0,10.7,2.7,10.7,8.1v16.1
				c0,1.6,0.6,2.4,2,2.4s2-0.8,2-2.3h1.1c0,1.2-0.4,2.2-1.2,2.9s-2,1.1-3.5,1.1s-2.8-0.5-3.9-1.4C155.9,56.5,155.4,55,155.4,53.1"/>
		</g>
		<g>
			<defs>
				<rect id="SVGID_25_" x="-9.2" y="-50.5" width="217.3" height="181.1"/>
			</defs>
			<clipPath id="SVGID_26_">
				<use xlink:href="#SVGID_25_"  style="overflow:visible;"/>
			</clipPath>
			<path class="st13" d="M166.8,58.3v-1.1l3.7-0.5V32.6l-3.7-0.5V31h9v4.1c2.2-3,4.7-4.5,7.5-4.5c1.3,0,2.5,0.3,3.5,1
				s1.5,1.6,1.5,2.7c0,1.1-0.3,1.9-0.9,2.6c-0.6,0.6-1.4,0.9-2.5,0.9s-1.9-0.4-2.6-1.3c0.4-0.5,0.6-1,0.6-1.6s-0.2-1.1-0.6-1.4
				c-0.4-0.4-0.9-0.6-1.6-0.6c-1.3,0-3,1.4-4.9,4.2v19.7l4.2,0.5v1.1h-13.2V58.3z"/>
		</g>
		<g>
			<defs>
				<rect id="SVGID_27_" x="-9.2" y="-50.5" width="217.3" height="181.1"/>
			</defs>
			<clipPath id="SVGID_28_">
				<use xlink:href="#SVGID_27_"  style="overflow:visible;"/>
			</clipPath>
			<path class="st14" d="M177.3,29.7c0,0-3.7-9.4,8.1-13.5C185.4,16.1,186.7,28.3,177.3,29.7"/>
		</g>
		<g>
			<defs>
				<rect id="SVGID_29_" x="-9.2" y="-50.5" width="217.3" height="181.1"/>
			</defs>
			<clipPath id="SVGID_30_">
				<use xlink:href="#SVGID_29_"  style="overflow:visible;"/>
			</clipPath>
			<path class="st15" d="M173.3,29.7c0,0-14.1-1.6-11.3-18.9C162,10.8,177.9,17.1,173.3,29.7"/>
		</g>
		<g>
			<defs>
				<rect id="SVGID_31_" x="-9.2" y="-50.5" width="217.3" height="181.1"/>
			</defs>
			<clipPath id="SVGID_32_">
				<use xlink:href="#SVGID_31_"  style="overflow:visible;"/>
			</clipPath>
			<path class="st16" d="M175.8,20.2c0,0-6-4.8,0.2-11.9C176,8.3,181.5,15.8,175.8,20.2"/>
		</g>
	</g>
</g>
<text transform="matrix(1 0 0 1 182.7715 58.0322)" class="st2 st17 st18">TM</text>
</svg>
