<?xml version="1.0" encoding="utf-8"?>
<!-- Generator: Adobe Illustrator 21.0.0, SVG Export Plug-In . SVG Version: 6.00 Build 0)  -->
<svg version="1.1" id="Layer_1" xmlns="http://www.w3.org/2000/svg" xmlns:xlink="http://www.w3.org/1999/xlink" x="0px" y="0px"
	 viewBox="0 0 200 85.7" style="enable-background:new 0 0 200 85.7;" xml:space="preserve">
<style type="text/css">
	.st0{clip-path:url(#SVGID_2_);fill:#89C547;}
	.st1{clip-path:url(#SVGID_4_);fill:#89C547;}
	.st2{fill:#89C547;}
	.st3{clip-path:url(#SVGID_6_);fill:#89C547;}
	.st4{clip-path:url(#SVGID_8_);fill:#89C547;}
	.st5{clip-path:url(#SVGID_10_);fill:#89C547;}
	.st6{clip-path:url(#SVGID_12_);fill:#89C547;}
	.st7{clip-path:url(#SVGID_14_);fill:#89C547;}
	.st8{clip-path:url(#SVGID_16_);fill:#25408E;}
	.st9{clip-path:url(#SVGID_18_);fill:#25408E;}
	.st10{clip-path:url(#SVGID_20_);fill:#25408E;}
	.st11{clip-path:url(#SVGID_22_);fill:#25408E;}
	.st12{clip-path:url(#SVGID_24_);fill:#25408E;}
	.st13{clip-path:url(#SVGID_26_);fill:#25408E;}
	.st14{clip-path:url(#SVGID_28_);fill:#89C547;}
	.st15{clip-path:url(#SVGID_30_);fill:#89C547;}
	.st16{clip-path:url(#SVGID_32_);fill:#89C547;}
	.st17{fill:#25408E;}
	.st18{font-family:'MyriadPro-Regular';}
	.st19{font-size:3.251px;}
</style>
<g>
	<g>
		<defs>
			<rect id="SVGID_1_" x="3.1" y="4.8" width="193.6" height="75.3"/>
		</defs>
		<clipPath id="SVGID_2_">
			<use xlink:href="#SVGID_1_"  style="overflow:visible;"/>
		</clipPath>
		<path class="st0" d="M37,72.6L37,72.6c0.5-0.9,1.5-1.5,2.6-1.5c2.2,0,2.8,1.4,2.8,3.6v5.2h-0.8v-5.2c0-1.5-0.2-2.8-2.1-2.8
			c-2.2,0-2.5,2-2.5,3.8v4.2h-0.8v-8.6H37V72.6z"/>
	</g>
	<g>
		<defs>
			<rect id="SVGID_3_" x="3.1" y="4.8" width="193.6" height="75.3"/>
		</defs>
		<clipPath id="SVGID_4_">
			<use xlink:href="#SVGID_3_"  style="overflow:visible;"/>
		</clipPath>
		<path class="st1" d="M60.7,71.3v5.2c0,0.9,0,1.8-0.5,2.5c-0.6,0.8-1.6,1.2-2.6,1.2s-2-0.4-2.6-1.2c-0.5-0.7-0.5-1.6-0.5-2.5v-5.2
			h0.8v4.9c0,1.7,0.2,3.2,2.3,3.2s2.3-1.5,2.3-3.2v-4.9H60.7z"/>
	</g>
</g>
<polygon class="st2" points="72.8,68.2 72.8,71.3 71.9,71.3 71.9,72.1 72.8,72.1 72.8,79.9 73.6,79.9 73.6,72.1 75.2,72.1 
	75.2,71.3 73.6,71.3 73.6,68.2 "/>
<g>
	<g>
		<defs>
			<rect id="SVGID_5_" x="3.1" y="4.8" width="193.6" height="75.3"/>
		</defs>
		<clipPath id="SVGID_6_">
			<use xlink:href="#SVGID_5_"  style="overflow:visible;"/>
		</clipPath>
		<path class="st3" d="M86.8,72.4L86.8,72.4c0.4-0.8,1-1.3,1.9-1.3c0.3,0,0.6,0.1,0.9,0.2L89.2,72c-0.2-0.1-0.4-0.2-0.6-0.2
			c-1.9,0-1.8,2.3-1.8,3.6v4.4H86v-8.6h0.8V72.4z"/>
	</g>
	<g>
		<defs>
			<rect id="SVGID_7_" x="3.1" y="4.8" width="193.6" height="75.3"/>
		</defs>
		<clipPath id="SVGID_8_">
			<use xlink:href="#SVGID_7_"  style="overflow:visible;"/>
		</clipPath>
		<path class="st4" d="M101.6,79.9h-0.8v-8.6h0.8V79.9z M101.9,68.4c0,0.4-0.3,0.8-0.8,0.8c-0.4,0-0.8-0.3-0.8-0.8
			c0-0.4,0.3-0.8,0.8-0.8C101.6,67.7,101.9,68,101.9,68.4"/>
	</g>
</g>
<polygon class="st2" points="114.2,68.2 114.2,71.3 113.2,71.3 113.2,72.1 114.2,72.1 114.2,79.9 115,79.9 115,72.1 116.5,72.1 
	116.5,71.3 115,71.3 115,68.2 "/>
<g>
	<g>
		<defs>
			<rect id="SVGID_9_" x="3.1" y="4.8" width="193.6" height="75.3"/>
		</defs>
		<clipPath id="SVGID_10_">
			<use xlink:href="#SVGID_9_"  style="overflow:visible;"/>
		</clipPath>
		<path class="st5" d="M128.5,79.9h-0.8v-8.6h0.8V79.9z M128.8,68.4c0,0.4-0.3,0.8-0.8,0.8c-0.4,0-0.8-0.3-0.8-0.8
			c0-0.4,0.3-0.8,0.8-0.8C128.5,67.7,128.8,68,128.8,68.4"/>
	</g>
	<g>
		<defs>
			<rect id="SVGID_11_" x="3.1" y="4.8" width="193.6" height="75.3"/>
		</defs>
		<clipPath id="SVGID_12_">
			<use xlink:href="#SVGID_11_"  style="overflow:visible;"/>
		</clipPath>
		<path class="st6" d="M141,75.6c0,2,1.5,3.7,3.6,3.7s3.7-1.6,3.7-3.7s-1.6-3.7-3.7-3.7C142.5,71.9,141,73.6,141,75.6 M149.2,75.6
			c0,2.6-2,4.5-4.5,4.5s-4.5-2-4.5-4.5s2-4.5,4.5-4.5S149.2,73.1,149.2,75.6"/>
	</g>
	<g>
		<defs>
			<rect id="SVGID_13_" x="3.1" y="4.8" width="193.6" height="75.3"/>
		</defs>
		<clipPath id="SVGID_14_">
			<use xlink:href="#SVGID_13_"  style="overflow:visible;"/>
		</clipPath>
		<path class="st7" d="M161.3,72.6L161.3,72.6c0.5-0.9,1.5-1.5,2.6-1.5c2.2,0,2.8,1.4,2.8,3.6v5.2h-0.8v-5.2c0-1.5-0.2-2.8-2.1-2.8
			c-2.2,0-2.5,2-2.5,3.8v4.2h-0.8v-8.6h0.8V72.6z"/>
	</g>
	<g>
		<defs>
			<rect id="SVGID_15_" x="3.1" y="4.8" width="193.6" height="75.3"/>
		</defs>
		<clipPath id="SVGID_16_">
			<use xlink:href="#SVGID_15_"  style="overflow:visible;"/>
		</clipPath>
		<path class="st8" d="M30.2,47.7v-5.8c0-7.5-2.7-11.2-8.1-11.2c-2.6,0-4.8,1.1-6.5,3.2s-2.6,4.7-2.7,7.6v6.2c0,3.1,0.9,5.7,2.6,7.9
			c1.8,2.2,4,3.3,6.6,3.3C27.5,58.9,30.2,55.2,30.2,47.7 M3.1,59.8v-1.2L7.2,58V15.2l-4.1-0.6v-1.2H13v22.4c2.1-4.4,5.4-6.6,9.8-6.6
			c4.2,0,7.6,1.4,10.1,4.3s3.8,6.6,3.8,11.2s-1.3,8.4-3.8,11.3s-5.9,4.3-10.3,4.3c-4.3,0-7.5-2.2-9.6-6.6v6L3.1,59.8L3.1,59.8z"/>
	</g>
	<g>
		<defs>
			<rect id="SVGID_17_" x="3.1" y="4.8" width="193.6" height="75.3"/>
		</defs>
		<clipPath id="SVGID_18_">
			<use xlink:href="#SVGID_17_"  style="overflow:visible;"/>
		</clipPath>
		<path class="st9" d="M60.2,49.9v-6h-2.1c-3,0-5.5,0.7-7.6,2.1s-3,3.6-3,6.6c0,1.5,0.4,2.8,1.3,3.7c0.9,0.9,2.1,1.3,3.8,1.3
			s3.3-0.7,4.9-2.1C59.1,54.2,60,52.3,60.2,49.9 M60.2,54.1c-1,2-2.4,3.5-4.3,4.6c-1.9,1.1-4.1,1.7-6.5,1.7s-4.4-0.6-5.9-1.9
			c-1.5-1.3-2.3-3.1-2.3-5.3c0-2.3,0.5-4,1.5-5.3s2.2-2.3,3.8-3.2c2.8-1.4,6.7-2.1,11.7-2.1h2.1V37c0-4.3-2-6.5-5.9-6.5
			c-1.7,0-3.2,0.4-4.3,1.2c-1.1,0.8-1.7,1.7-1.7,2.8s0.5,1.8,1.6,2.1c0,1-0.4,1.8-1.1,2.6c-0.7,0.7-1.6,1.1-2.6,1.1
			s-1.9-0.4-2.6-1.1c-0.7-0.7-1-1.6-1-2.7c0-1.1,0.3-2,1-3c0.6-0.9,1.5-1.7,2.6-2.3c2.2-1.4,4.9-2,8.1-2c7.8,0,11.7,3,11.7,8.9v17.7
			c0,1.7,0.7,2.6,2.1,2.6s2.1-0.8,2.1-2.5h1.2c0,1.4-0.4,2.4-1.3,3.2s-2.2,1.2-3.8,1.2c-1.7,0-3.1-0.5-4.3-1.6
			C60.9,57.8,60.3,56.2,60.2,54.1"/>
	</g>
	<g>
		<defs>
			<rect id="SVGID_19_" x="3.1" y="4.8" width="193.6" height="75.3"/>
		</defs>
		<clipPath id="SVGID_20_">
			<use xlink:href="#SVGID_19_"  style="overflow:visible;"/>
		</clipPath>
		<path class="st10" d="M93.4,38.4c1-0.7,1.6-1.8,1.6-3.1s-0.6-2.5-1.7-3.4s-2.7-1.4-4.6-1.4c-2.8,0-4.9,1-6.4,3s-2.2,4.8-2.2,8.4
			v5.8c0,3.4,0.7,6.2,2.2,8.3c1.4,2.1,3.5,3.1,6.3,3.1c2.7,0,5.1-0.7,7-2.2c2-1.5,3.2-3.4,3.6-5.9h1.3c-0.5,2.9-1.9,5.1-4,6.8
			s-4.7,2.6-7.8,2.6c-4.3,0-7.8-1.4-10.7-4.3c-2.9-2.9-4.3-6.7-4.3-11.4s1.5-8.5,4.5-11.2c3-2.8,6.5-4.2,10.6-4.2
			c3.4,0,6.2,0.8,8.5,2.5s3.4,3.8,3.4,6.3c0,1.3-0.3,2.3-1,2.9c-0.7,0.7-1.5,1-2.6,1s-1.9-0.3-2.6-1C93.8,40.3,93.4,39.4,93.4,38.4"
			/>
	</g>
	<g>
		<defs>
			<rect id="SVGID_21_" x="3.1" y="4.8" width="193.6" height="75.3"/>
		</defs>
		<clipPath id="SVGID_22_">
			<use xlink:href="#SVGID_21_"  style="overflow:visible;"/>
		</clipPath>
		<path class="st11" d="M104,14.6v-1.2h9.9V36c3.1-4.5,6.9-6.8,11.3-6.8c2.8,0,5,0.7,6.6,2.1c1.6,1.4,2.4,3.5,2.4,6.2V58l4.1,0.6
			v1.2H125v-1.2l3.5-0.6V37.6c0-4.2-1.7-6.3-5-6.3c-1.8,0-3.5,0.6-5.1,1.9c-1.6,1.3-3.1,2.9-4.4,4.8v20l3.5,0.6v1.2H104v-1.2
			l4.1-0.6V15.2L104,14.6z"/>
	</g>
	<g>
		<defs>
			<rect id="SVGID_23_" x="3.1" y="4.8" width="193.6" height="75.3"/>
		</defs>
		<clipPath id="SVGID_24_">
			<use xlink:href="#SVGID_23_"  style="overflow:visible;"/>
		</clipPath>
		<path class="st12" d="M160.4,49.9v-6h-2.1c-3,0-5.5,0.7-7.6,2.1c-2,1.4-3,3.6-3,6.6c0,1.5,0.4,2.8,1.3,3.7
			c0.8,0.9,2.1,1.3,3.8,1.3s3.3-0.7,4.9-2.1C159.3,54.2,160.2,52.3,160.4,49.9 M160.4,54.1c-1,2-2.4,3.5-4.3,4.6
			c-1.9,1.1-4.1,1.7-6.5,1.7s-4.4-0.6-5.9-1.9c-1.5-1.3-2.3-3.1-2.3-5.3c0-2.3,0.5-4,1.4-5.3c1-1.3,2.2-2.3,3.8-3.2
			c2.8-1.4,6.7-2.1,11.7-2.1h2.1V37c0-4.3-2-6.5-5.9-6.5c-1.7,0-3.2,0.4-4.3,1.2c-1.1,0.8-1.7,1.7-1.7,2.8s0.5,1.8,1.6,2.1
			c0,1-0.4,1.8-1.1,2.6c-0.7,0.7-1.6,1.1-2.6,1.1s-1.9-0.4-2.6-1.1c-0.7-0.7-1-1.6-1-2.7c0-1.1,0.3-2,1-3c0.6-0.9,1.5-1.7,2.6-2.3
			c2.2-1.4,4.9-2,8.1-2c7.8,0,11.7,3,11.7,8.9v17.7c0,1.7,0.7,2.6,2.1,2.6c1.4,0,2.1-0.8,2.1-2.5h1.2c0,1.4-0.4,2.4-1.3,3.2
			c-0.9,0.8-2.2,1.2-3.8,1.2c-1.7,0-3.1-0.5-4.3-1.6C161.1,57.8,160.4,56.2,160.4,54.1"/>
	</g>
	<g>
		<defs>
			<rect id="SVGID_25_" x="3.1" y="4.8" width="193.6" height="75.3"/>
		</defs>
		<clipPath id="SVGID_26_">
			<use xlink:href="#SVGID_25_"  style="overflow:visible;"/>
		</clipPath>
		<path class="st13" d="M173.1,59.8v-1.2l4.1-0.6V31.5l-4.1-0.6v-1.2h9.9v4.5c2.4-3.3,5.2-5,8.2-5c1.5,0,2.8,0.4,3.9,1.1
			c1.1,0.8,1.7,1.7,1.7,2.9c0,1.2-0.3,2.1-1,2.8s-1.6,1-2.7,1c-1.2,0-2.1-0.5-2.9-1.5c0.4-0.5,0.6-1.1,0.6-1.8
			c0-0.6-0.2-1.2-0.7-1.6c-0.4-0.4-1-0.6-1.8-0.6c-1.5,0-3.3,1.5-5.4,4.6v21.7l4.6,0.6v1.2h-14.4V59.8z"/>
	</g>
	<g>
		<defs>
			<rect id="SVGID_27_" x="3.1" y="4.8" width="193.6" height="75.3"/>
		</defs>
		<clipPath id="SVGID_28_">
			<use xlink:href="#SVGID_27_"  style="overflow:visible;"/>
		</clipPath>
		<path class="st14" d="M184.5,28.3c0,0-4.1-10.4,8.9-14.9C193.4,13.4,194.9,26.8,184.5,28.3"/>
	</g>
	<g>
		<defs>
			<rect id="SVGID_29_" x="3.1" y="4.8" width="193.6" height="75.3"/>
		</defs>
		<clipPath id="SVGID_30_">
			<use xlink:href="#SVGID_29_"  style="overflow:visible;"/>
		</clipPath>
		<path class="st15" d="M180.2,28.3c0,0-15.5-1.7-12.5-20.8C167.7,7.5,185.2,14.5,180.2,28.3"/>
	</g>
	<g>
		<defs>
			<rect id="SVGID_31_" x="3.1" y="4.8" width="193.6" height="75.3"/>
		</defs>
		<clipPath id="SVGID_32_">
			<use xlink:href="#SVGID_31_"  style="overflow:visible;"/>
		</clipPath>
		<path class="st16" d="M182.9,17.9c0,0-6.6-5.2,0.2-13.1C183.1,4.8,189.1,13,182.9,17.9"/>
	</g>
</g>
<text transform="matrix(1 0 0 1 190.2695 59.417)" class="st17 st18 st19">TM</text>
</svg>
