<?xml version="1.0" encoding="utf-8"?>
<!-- Generator: Adobe Illustrator 21.0.0, SVG Export Plug-In . SVG Version: 6.00 Build 0)  -->
<svg version="1.1" id="Layer_1" xmlns="http://www.w3.org/2000/svg" xmlns:xlink="http://www.w3.org/1999/xlink" x="0px" y="0px"
	 viewBox="0 0 337.5 108" style="enable-background:new 0 0 337.5 108;" xml:space="preserve">
<style type="text/css">
	.st0{fill:#FFFFFF;}
	.st1{font-family:'MyriadPro-Regular';}
	.st2{font-size:4.4132px;}
</style>
<g>
	<path class="st0" d="M77,72.6h8V23h-4.2c-1,0-2.1,0.1-3.3,0.3c-1.2,0.2-2.4,0.6-3.7,1.4c-1.2,0.8-2.4,2-3.6,3.7
		c-1.1,1.7-2.1,4-2.9,6.9h-0.8V22h44v13.3h-0.8c-0.8-2.9-1.8-5.3-2.9-6.9c-1.1-1.7-2.3-2.9-3.5-3.7c-1.2-0.8-2.5-1.2-3.7-1.4
		c-1.2-0.2-2.3-0.3-3.3-0.3h-4.2v49.6h8v1H77V72.6z"/>
	<path class="st0" d="M105.2,72.6h5.6V43.5h-5.6v-1h11.7v7.3h0.1c0.2-0.7,0.5-1.5,0.9-2.5c0.4-0.9,1-1.8,1.8-2.6s1.7-1.6,2.8-2.1
		c1.1-0.6,2.4-0.9,3.9-0.9c1.1,0,2.1,0.2,2.9,0.5c0.8,0.4,1.5,0.8,2,1.4c0.5,0.6,0.9,1.2,1.2,1.9c0.2,0.7,0.4,1.4,0.4,2.2
		c0,1.6-0.4,2.7-1.1,3.2c-0.7,0.5-1.6,0.8-2.5,0.8c-2.1,0-3.2-0.7-3.2-2c0-0.4,0-0.8,0.1-1.1s0.2-0.5,0.3-0.8
		c0.1-0.3,0.2-0.6,0.3-0.9c0.1-0.3,0.1-0.8,0.1-1.4c0-1.5-0.8-2.3-2.5-2.3c-0.8,0-1.6,0.3-2.5,0.9c-0.9,0.6-1.7,1.4-2.4,2.5
		c-0.7,1.1-1.4,2.5-1.9,4c-0.5,1.6-0.8,3.4-0.8,5.4v16.6h6.3v1H105v-1H105.2z"/>
	<path class="st0" d="M154.7,55.9h-0.1c-0.1,0.6-0.9,1.3-2.4,1.9l-5.4,2.2c-1.5,0.6-2.7,1.5-3.5,2.6s-1.2,2.5-1.2,4.2
		c0,0.7,0.1,1.5,0.2,2.2c0.1,0.8,0.4,1.5,0.8,2.1c0.4,0.6,0.9,1.1,1.6,1.5c0.7,0.4,1.6,0.6,2.7,0.6c1.6,0,2.9-0.3,3.9-1
		s1.7-1.5,2.2-2.5s0.8-2.1,1-3.3c0.2-1.2,0.3-2.3,0.3-3.2v-7.3H154.7z M167.4,72.8c-0.6,0.5-1.4,0.9-2.2,1.3
		c-0.9,0.4-1.9,0.5-3.2,0.5c-2.3,0-4-0.5-5-1.5s-1.8-2.4-2.1-4.2h-0.1c-0.2,0.4-0.5,1-0.8,1.6c-0.3,0.7-0.9,1.3-1.6,1.9
		c-0.7,0.6-1.6,1.1-2.8,1.5s-2.6,0.6-4.4,0.6c-2,0-3.6-0.2-4.9-0.7c-1.2-0.5-2.2-1-2.8-1.7c-0.7-0.7-1.1-1.4-1.3-2.3
		c-0.2-0.8-0.3-1.6-0.3-2.4c0-1.7,0.3-3,1-4.1c0.7-1,1.6-1.8,2.6-2.4c1.1-0.6,2.3-1.1,3.6-1.5s2.7-0.8,4-1.2c1.6-0.5,2.9-1,3.9-1.4
		s1.8-0.9,2.4-1.4c0.6-0.6,1-1.3,1.2-2.1s0.3-2,0.3-3.4c0-1.2-0.1-2.2-0.2-3.1c-0.1-0.9-0.4-1.7-0.8-2.4c-0.4-0.7-0.9-1.1-1.7-1.5
		c-0.7-0.3-1.7-0.5-2.9-0.5c-1.6,0-2.9,0.3-3.9,0.8c-1,0.6-1.6,1.5-1.6,2.7c0,0.8,0.1,1.6,0.2,2.4c0.1,0.8,0.2,1.4,0.2,1.8
		c0,0.7-0.2,1.2-0.7,1.7s-1.2,0.7-2.1,0.7c-1.6,0-2.6-0.3-3-0.9c-0.4-0.6-0.6-1.3-0.6-2.2c0-1.1,0.2-2.1,0.7-3
		c0.5-1,1.2-1.8,2.1-2.6c0.9-0.7,2.1-1.3,3.6-1.8s3.1-0.7,4.9-0.7c2.2,0,4.1,0.3,5.6,0.8c1.5,0.6,2.7,1.3,3.6,2.2
		c0.9,0.9,1.6,2,2,3.2s0.6,2.4,0.6,3.7v18c0,1.4,0.2,2.3,0.7,2.8c0.4,0.5,1.1,0.7,1.9,0.7c0.5,0,1.1-0.1,1.7-0.3
		c0.6-0.2,1.1-0.5,1.7-0.9L167.4,72.8z"/>
</g>
<polygon class="st0" points="152.2,22 174.6,22 174.6,23 166.6,23 182.7,65.1 198.5,23 190.6,23 190.6,22 206.3,22 206.3,23 
	199.8,23 180.3,74.7 178.5,74.7 158.8,23 152.2,23 "/>
<g>
	<path class="st0" d="M218.1,54.6c0.1-0.7,0.1-1.3,0.1-1.9v-1.8c0-1.6-0.2-3-0.5-4.1s-0.8-1.9-1.3-2.5c-0.6-0.6-1.2-1.1-2-1.3
		c-0.8-0.3-1.7-0.4-2.6-0.4c-1.6,0-3,0.3-4.1,1s-1.9,1.5-2.5,2.6s-1.1,2.4-1.4,3.8c-0.3,1.4-0.5,3-0.6,4.6
		C203.2,54.6,218.1,54.6,218.1,54.6z M203.2,55.6c0,0.5,0,1,0,1.5s0,1.1,0,1.9c0,1.6,0.1,3.3,0.3,5c0.2,1.7,0.6,3.3,1.3,4.7
		c0.7,1.4,1.6,2.6,2.9,3.5c1.3,0.9,3,1.4,5.1,1.4s3.9-0.3,5.3-0.9c1.4-0.6,2.5-1.4,3.3-2.3s1.4-1.8,1.8-2.7c0.4-0.9,0.7-1.7,0.9-2.2
		l1.1,0.2c-0.1,0.5-0.4,1.3-0.8,2.3c-0.4,1-1.1,2-2,3s-2.1,1.9-3.6,2.6s-3.5,1.1-5.9,1.1s-4.6-0.4-6.7-1.2c-2.1-0.8-3.8-1.9-5.3-3.3
		s-2.7-3.2-3.5-5.2s-1.2-4.2-1.2-6.7c0-2.1,0.4-4.2,1.3-6.2c0.8-2,2-3.8,3.5-5.3s3.2-2.8,5.2-3.7s4.1-1.4,6.4-1.4
		c1.4,0,2.8,0.2,4.3,0.7s3,1.3,4.3,2.4c1.3,1.1,2.4,2.5,3.3,4.3c0.9,1.8,1.3,4,1.3,6.7h-22.6V55.6z"/>
	<path class="st0" d="M230.8,72.6h5.6V43.5h-5.6v-1h11.7v7.3h0.1c0.2-0.7,0.5-1.5,0.9-2.5c0.4-0.9,1-1.8,1.8-2.6s1.7-1.6,2.8-2.1
		c1.1-0.6,2.4-0.9,3.9-0.9c1.1,0,2.1,0.2,2.9,0.5c0.8,0.4,1.5,0.8,2,1.4c0.5,0.6,0.9,1.2,1.2,1.9c0.2,0.7,0.4,1.4,0.4,2.2
		c0,1.6-0.4,2.7-1.1,3.2s-1.6,0.8-2.5,0.8c-2.1,0-3.2-0.7-3.2-2c0-0.4,0-0.8,0.1-1.1s0.2-0.5,0.3-0.8s0.2-0.6,0.3-0.9
		c0.1-0.3,0.1-0.8,0.1-1.4c0-1.5-0.8-2.3-2.5-2.3c-0.8,0-1.6,0.3-2.5,0.9c-0.9,0.6-1.7,1.4-2.4,2.5s-1.4,2.5-1.9,4
		c-0.5,1.6-0.8,3.4-0.8,5.4v16.6h6.3v1h-18.1v-1H230.8z"/>
	<path class="st0" d="M299.5,73.6h-11.7v-7.3h-0.1c-0.4,1-1,1.9-1.6,2.9s-1.4,1.9-2.2,2.7c-0.9,0.8-1.9,1.4-3.1,2
		c-1.2,0.5-2.6,0.8-4.2,0.8c-1.9,0-3.5-0.2-4.7-0.7s-2.1-0.9-2.8-1.4c-0.3-0.2-0.7-0.5-1.1-0.9s-0.8-0.9-1.1-1.5
		c-0.3-0.6-0.6-1.4-0.9-2.4c-0.2-1-0.4-2.2-0.4-3.7V43.5H260v-1h11.8v22.2c0,1.3,0.1,2.4,0.3,3.5c0.2,1.1,0.5,2,1,2.8
		s1.1,1.4,1.9,1.9s1.8,0.7,3,0.7c1.1,0,2.2-0.3,3.3-0.9c1.1-0.6,2.2-1.5,3.1-2.7s1.7-2.5,2.4-4.2c0.6-1.6,0.9-3.4,0.9-5.5V43.5h-5.5
		v-1H294v30.1h5.6v1H299.5z"/>
	<path class="st0" d="M305.3,63.5h0.8c0.3,1.2,0.8,2.3,1.3,3.5s1.2,2.3,2.1,3.3s2,1.8,3.3,2.4s2.9,0.9,4.7,0.9
		c1.5,0,2.9-0.5,4.1-1.4s1.8-2.5,1.8-4.6c0-1.8-0.5-3.1-1.4-3.9c-0.9-0.7-2-1.3-3.3-1.8l-5.7-2c-0.7-0.2-1.5-0.5-2.4-0.9
		c-0.8-0.4-1.6-0.9-2.4-1.5c-0.7-0.7-1.3-1.5-1.8-2.5s-0.7-2.3-0.7-3.9c0-1.4,0.3-2.6,0.8-3.8s1.3-2.2,2.2-3c0.9-0.9,2-1.5,3.3-2
		s2.7-0.7,4.2-0.7c1.1,0,1.9,0.1,2.6,0.3s1.2,0.3,1.7,0.5s0.9,0.3,1.3,0.5s0.8,0.3,1.4,0.3c0.5,0,0.9-0.2,1.2-0.6h0.8v8.3h-0.8
		c-0.3-1.1-0.7-2.1-1.2-3.1c-0.4-1-1-1.9-1.6-2.6c-0.6-0.8-1.4-1.4-2.2-1.8c-0.9-0.4-1.9-0.7-3.2-0.7c-2.3,0-4.1,0.5-5.4,1.6
		c-1.3,1-1.9,2.4-1.9,4.2c0,1.5,0.5,2.7,1.6,3.5s2.7,1.5,4.8,2.2l5.3,1.7c2.3,0.8,4.1,1.8,5.6,3.2c1.4,1.4,2.2,3.1,2.2,5.4
		c0,1.3-0.3,2.6-0.8,3.8c-0.5,1.3-1.3,2.4-2.2,3.3c-1,0.9-2.2,1.7-3.6,2.3c-1.4,0.6-3.1,0.9-4.9,0.9c-1.1,0-2-0.1-2.9-0.3
		c-0.9-0.2-1.7-0.4-2.5-0.7c-0.7-0.2-1.4-0.5-2.1-0.7c-0.6-0.2-1.2-0.3-1.7-0.3s-0.9,0.1-1.2,0.3c-0.2,0.2-0.4,0.4-0.6,0.7h-0.8
		V63.5H305.3z"/>
	<path class="st0" d="M266.6,93.1c0.3,0.3,0.8,0.4,1.4,0.4c0.5,0,1-0.2,1.4-0.5s0.7-0.7,1-1.2s0.4-1,0.6-1.5
		c0.1-0.6,0.2-1.1,0.2-1.5c0-0.7-0.2-1.2-0.5-1.5c-0.4-0.3-0.8-0.4-1.3-0.4s-0.9,0.2-1.3,0.5s-0.7,0.7-1,1.2s-0.5,1-0.6,1.5
		s-0.2,1-0.2,1.4C266.1,92.3,266.2,92.8,266.6,93.1 M263.1,99.4c-0.2,0.4-0.3,1-0.3,1.7c0,0.5,0.1,0.9,0.3,1.3
		c0.2,0.3,0.4,0.6,0.7,0.9c0.3,0.2,0.6,0.4,1,0.5s0.7,0.1,1.1,0.1c0.7,0,1.3-0.1,2-0.4c0.6-0.2,1.2-0.5,1.6-0.9
		c0.5-0.4,0.8-0.8,1.1-1.3c0.3-0.5,0.4-1,0.4-1.5c0-0.3,0-0.5-0.1-0.7s-0.2-0.4-0.4-0.6c-0.2-0.2-0.5-0.3-0.8-0.5
		c-0.4-0.1-0.8-0.2-1.3-0.2l-3.4-0.1l-0.7,0.5C263.6,98.6,263.3,99,263.1,99.4 M270.9,97c0.6,0.4,0.9,1.1,0.9,2
		c0,0.5-0.1,1.1-0.4,1.7s-0.7,1.2-1.2,1.7s-1.1,1-1.9,1.3c-0.7,0.3-1.6,0.5-2.6,0.5c-0.6,0-1.2-0.1-1.8-0.3
		c-0.6-0.2-1.1-0.4-1.5-0.7c-0.4-0.3-0.8-0.6-1-1s-0.4-0.7-0.4-1.1s0.1-0.7,0.3-1.1c0.2-0.3,0.4-0.6,0.7-0.9
		c0.3-0.3,0.5-0.5,0.8-0.7s0.5-0.4,0.7-0.5l0.7-0.4c-0.2,0-0.3-0.1-0.5-0.2s-0.4-0.2-0.6-0.3c-0.2-0.1-0.3-0.3-0.5-0.5
		c-0.1-0.2-0.2-0.5-0.2-0.9c0-0.5,0.1-0.9,0.4-1.3s0.7-0.8,1.3-1.1l0.9-0.5c-0.2-0.2-0.4-0.5-0.5-0.8s-0.2-0.6-0.2-1.1
		c0-0.6,0.2-1.1,0.5-1.7c0.3-0.5,0.7-1,1.2-1.4s1-0.7,1.6-1c0.6-0.2,1.1-0.4,1.7-0.4c0.4,0,0.8,0,1.1,0.1c0.3,0.1,0.6,0.2,0.8,0.4
		c0.2,0.2,0.4,0.3,0.6,0.5s0.3,0.3,0.4,0.5c0.2-0.3,0.4-0.6,0.7-0.9c0.3-0.3,0.7-0.4,1.2-0.4c0.4,0,0.8,0.1,1.1,0.4
		c0.3,0.3,0.5,0.6,0.5,1.1c0,0.3-0.1,0.5-0.2,0.7c-0.2,0.2-0.4,0.3-0.8,0.3c-0.2,0-0.4-0.1-0.6-0.2s-0.2-0.3-0.2-0.4s0-0.3,0.1-0.3
		c0-0.1,0.1-0.2,0.2-0.2c0.1-0.1,0.1-0.1,0.2-0.2c0-0.1,0.1-0.2,0.1-0.4c0-0.1,0-0.2-0.1-0.3c-0.1-0.1-0.2-0.1-0.3-0.1
		c-0.3,0-0.5,0.1-0.8,0.4c-0.3,0.2-0.5,0.5-0.6,0.9c0.1,0.1,0.2,0.3,0.3,0.6c0.1,0.2,0.1,0.5,0.1,0.7c0,0.5-0.1,1-0.4,1.5
		s-0.7,1-1.2,1.4s-1,0.7-1.6,1c-0.6,0.2-1.1,0.4-1.6,0.4c-0.7,0-1.3-0.1-1.7-0.3c-0.4-0.2-0.7-0.3-0.9-0.5l-0.5,0.2
		c-0.5,0.2-0.9,0.5-1.2,0.8c-0.3,0.3-0.4,0.6-0.4,0.9c0,0.4,0.2,0.6,0.5,0.8s0.9,0.3,1.7,0.3l3.1,0.1
		C269.5,96.3,270.3,96.6,270.9,97"/>
	<path class="st0" d="M277.6,95c-0.1,0.2-0.2,0.5-0.2,0.7c-0.1,0.3-0.1,0.5-0.1,0.7s0.1,0.4,0.2,0.5s0.3,0.2,0.5,0.2
		c0.3,0,0.5-0.1,0.8-0.3c0.3-0.2,0.5-0.4,0.7-0.6s0.4-0.5,0.5-0.7s0.3-0.4,0.3-0.6l0.3,0.1c-0.1,0.1-0.2,0.3-0.3,0.6
		c-0.1,0.3-0.3,0.5-0.6,0.8c-0.2,0.3-0.5,0.5-0.9,0.7s-0.8,0.3-1.3,0.3s-1-0.1-1.3-0.3c-0.3-0.2-0.5-0.6-0.5-1.1
		c0-0.3,0-0.6,0.1-0.9s0.2-0.6,0.3-0.9l5.4-15.1h-2.1l0.1-0.3h3.8L277.6,95z"/>
	<path class="st0" d="M284.3,96.6c0.4,0.4,0.9,0.6,1.5,0.6c0.5,0,1-0.1,1.4-0.4s0.8-0.7,1.2-1.1c0.4-0.5,0.7-1,0.9-1.6
		c0.3-0.6,0.5-1.2,0.7-1.7c0.2-0.6,0.3-1.1,0.4-1.6s0.1-0.9,0.1-1.3c0-0.8-0.2-1.4-0.5-1.8c-0.3-0.5-0.9-0.7-1.7-0.7
		c-0.5,0-0.9,0.1-1.3,0.4s-0.8,0.6-1.1,1.1c-0.3,0.4-0.7,0.9-0.9,1.5c-0.3,0.6-0.5,1.1-0.7,1.7s-0.3,1.2-0.4,1.7
		c-0.1,0.6-0.1,1-0.1,1.5C283.7,95.6,283.9,96.2,284.3,96.6 M282.7,90.7c0.4-0.8,0.9-1.6,1.5-2.2s1.3-1.1,2.1-1.4
		c0.8-0.4,1.5-0.5,2.2-0.5c0.6,0,1.2,0.1,1.6,0.4c0.5,0.3,0.9,0.6,1.2,1c0.3,0.4,0.5,0.8,0.7,1.3c0.1,0.5,0.2,0.9,0.2,1.4
		c0,0.9-0.2,1.8-0.6,2.6c-0.4,0.8-0.9,1.6-1.5,2.2s-1.3,1.1-2,1.5s-1.5,0.5-2.1,0.5s-1.1-0.1-1.6-0.3c-0.5-0.2-0.9-0.5-1.2-0.9
		c-0.3-0.4-0.6-0.8-0.8-1.3c-0.2-0.5-0.3-1-0.3-1.6C282.1,92.4,282.3,91.5,282.7,90.7"/>
	<path class="st0" d="M297.1,97.2c0.5,0,1-0.1,1.5-0.4s1-0.7,1.4-1.2s0.9-1,1.2-1.6c0.4-0.6,0.7-1.2,1-1.9c0.3-0.7,0.5-1.3,0.7-1.9
		s0.2-1.2,0.2-1.7s-0.1-0.9-0.4-1.1c-0.3-0.3-0.7-0.4-1.2-0.4s-0.9,0.1-1.4,0.4s-0.9,0.7-1.4,1.1c-0.4,0.5-0.8,1-1.2,1.6
		c-0.4,0.6-0.7,1.2-1,1.9c-0.3,0.6-0.5,1.3-0.7,1.9s-0.3,1.2-0.3,1.8C295.6,96.6,296.1,97.2,297.1,97.2 M297.6,89.4L297.6,89.4
		c0.2-0.3,0.5-0.6,0.8-0.9s0.6-0.6,0.9-0.9s0.7-0.5,1.1-0.7s0.8-0.3,1.2-0.3c0.5,0,0.9,0.1,1.3,0.3c0.4,0.2,0.7,0.4,1,0.7
		c0.3,0.3,0.5,0.6,0.6,1s0.2,0.8,0.2,1.2c0,0.6-0.1,1.3-0.4,1.9c-0.2,0.6-0.6,1.2-1,1.8c-0.4,0.6-0.9,1.1-1.4,1.6s-1.1,0.9-1.6,1.3
		c-0.6,0.4-1.1,0.6-1.7,0.8c-0.6,0.2-1.1,0.3-1.6,0.3c-0.3,0-0.6-0.1-1-0.2c-0.3-0.1-0.6-0.3-0.9-0.5s-0.5-0.5-0.7-0.9
		s-0.3-0.8-0.3-1.3c0-0.3,0.1-0.7,0.2-1.1s0.2-0.8,0.4-1.1l4.7-13.2h-2.1l0.1-0.3h3.9L297.6,89.4z"/>
	<path class="st0" d="M315.2,88.9c0.1-0.2,0.1-0.4,0.1-0.6c0-0.1,0-0.3-0.1-0.5c0-0.2-0.1-0.3-0.2-0.5c-0.1-0.1-0.2-0.3-0.4-0.4
		c-0.2-0.1-0.4-0.2-0.7-0.2c-0.5,0-1,0.1-1.6,0.4c-0.5,0.3-1,0.7-1.4,1.2s-0.8,1-1.2,1.7c-0.4,0.6-0.7,1.2-1,1.9
		c-0.3,0.6-0.5,1.3-0.6,1.8c-0.1,0.6-0.2,1.1-0.2,1.6s0.1,0.9,0.3,1.3c0.2,0.3,0.5,0.5,1,0.5s0.9-0.1,1.4-0.4s0.9-0.6,1.3-1
		s0.7-0.8,1-1.2s0.5-0.7,0.6-0.9l1.3-3.6C315,89.5,315.2,89.1,315.2,88.9 M314.7,95.4c-0.1,0.4-0.2,0.7-0.2,1c0,0.4,0.2,0.6,0.6,0.6
		c0.3,0,0.6-0.1,0.9-0.3c0.3-0.2,0.5-0.4,0.7-0.6s0.3-0.5,0.5-0.7c0.1-0.2,0.2-0.4,0.3-0.5l0.3,0.2c-0.1,0.2-0.2,0.4-0.4,0.7
		c-0.2,0.3-0.4,0.5-0.6,0.8c-0.3,0.2-0.6,0.5-0.9,0.7s-0.7,0.3-1.2,0.3c-1.1,0-1.6-0.5-1.6-1.4c0-0.1,0-0.3,0.1-0.6
		c0-0.3,0.1-0.5,0.2-0.8l0,0c-0.2,0.3-0.5,0.6-0.8,0.9s-0.6,0.6-1,0.9s-0.8,0.5-1.2,0.7c-0.4,0.2-0.9,0.3-1.4,0.3
		c-0.3,0-0.7-0.1-1-0.2s-0.6-0.3-0.8-0.6c-0.2-0.2-0.4-0.6-0.6-1c-0.1-0.4-0.2-0.8-0.2-1.4s0.1-1.3,0.4-1.9s0.6-1.3,1-1.8
		c0.4-0.6,0.9-1.1,1.4-1.6s1.1-0.9,1.6-1.3c0.6-0.4,1.1-0.7,1.6-0.9c0.5-0.2,1-0.3,1.4-0.3c0.5,0,0.9,0.1,1.2,0.4
		c0.3,0.3,0.5,0.6,0.5,1.1l0,0l0.4-1.2h1.7l-2.6,7.3C314.9,94.6,314.8,95,314.7,95.4"/>
	<path class="st0" d="M321.4,95c-0.1,0.2-0.2,0.5-0.2,0.7c-0.1,0.3-0.1,0.5-0.1,0.7s0.1,0.4,0.2,0.5s0.3,0.2,0.5,0.2
		c0.3,0,0.5-0.1,0.8-0.3c0.2-0.2,0.5-0.4,0.7-0.6s0.4-0.5,0.5-0.7s0.3-0.4,0.3-0.6l0.3,0.1c-0.1,0.1-0.2,0.3-0.3,0.6
		c-0.1,0.3-0.3,0.5-0.6,0.8c-0.2,0.3-0.5,0.5-0.9,0.7s-0.8,0.3-1.3,0.3s-1-0.1-1.3-0.3c-0.3-0.2-0.5-0.6-0.5-1.1
		c0-0.3,0-0.6,0.1-0.9s0.2-0.6,0.3-0.9l5.4-15.1h-2.1l0.1-0.3h3.8L321.4,95z"/>
	<path class="st0" d="M35.1,78.2c-13,0-23.6-10.6-23.6-23.6c0-12.1,9.2-22.2,21-23.5c-0.7,4.1-1.6,7.5-2.8,9.3l5.3,9.7l4.9-9.8
		c0,0-1-1-2.2-9.2c11.8,1.3,20.9,11.4,20.9,23.5C58.7,67.6,48.1,78.2,35.1,78.2 M37.1,26.3c-0.7-5.2-1.4-12.4-2-22.1
		c0,0-0.4,11.8-1.8,22.1C18.4,27.2,6.7,39.5,6.7,54.6C6.7,70.2,19.4,83,35.1,83s28.4-12.7,28.4-28.4C63.5,39.6,51.8,27.3,37.1,26.3"
		/>
</g>
<text transform="matrix(1 0 0 1 328.9258 73.001)" class="st0 st1 st2">TM</text>
</svg>
